inDegrees=no
num_controls=7
num_derivatives=13
num_iterations=160
num_multipliers=7
num_parameters=0
num_slacks=7
num_states=26
objective=5.381065
objective_accelerations=0.545573
objective_balance=0.048198
objective_effort=0.476758
objective_height=4.207614
objective_ligament=0.102922
solver_duration=1778.019094
status=Solve_Succeeded
success=true
DataType=double
version=3
OpenSimVersion=4.4-2022-07-23-0e9fedc
endheader
time	/jointset/ground_pelvis/pelvis_tilt/value	/jointset/ground_pelvis/pelvis_tx/value	/jointset/ground_pelvis/pelvis_ty/value	/jointset/hip_l/hip_flexion_l/value	/jointset/hip_l/hip_adduction_l/value	/jointset/hip_l/hip_rotation_l/value	/jointset/back/lumbar_extension/value	/jointset/patellofemoral_l/patellar_flexion_l/value	/jointset/knee_l/knee_flexion_l/value	/jointset/knee_l/knee_adduction_l/value	/jointset/knee_l/knee_rotation_l/value	/jointset/ankle_l/ankle_angle_l/value	/jointset/subtalar_l/subtalar_angle_l/value	/jointset/ground_pelvis/pelvis_tilt/speed	/jointset/ground_pelvis/pelvis_tx/speed	/jointset/ground_pelvis/pelvis_ty/speed	/jointset/hip_l/hip_flexion_l/speed	/jointset/hip_l/hip_adduction_l/speed	/jointset/hip_l/hip_rotation_l/speed	/jointset/back/lumbar_extension/speed	/jointset/patellofemoral_l/patellar_flexion_l/speed	/jointset/knee_l/knee_flexion_l/speed	/jointset/knee_l/knee_adduction_l/speed	/jointset/knee_l/knee_rotation_l/speed	/jointset/ankle_l/ankle_angle_l/speed	/jointset/subtalar_l/subtalar_angle_l/speed	/forceset/tau_hip_flexion_l	/forceset/tau_hip_adduction_l	/forceset/tau_hip_rotation_l	/forceset/tau_knee_flexion_l	/forceset/tau_ankle_angle_l	/forceset/tau_subtalar_angle_l	/forceset/tau_lumbar_extension	lambda_cid13_p0	lambda_cid13_p1	lambda_cid13_p2	lambda_cid13_p3	lambda_cid13_p4	lambda_cid13_p5	lambda_cid14_p0	/jointset/ground_pelvis/pelvis_tilt/accel	/jointset/ground_pelvis/pelvis_tx/accel	/jointset/ground_pelvis/pelvis_ty/accel	/jointset/hip_l/hip_flexion_l/accel	/jointset/hip_l/hip_adduction_l/accel	/jointset/hip_l/hip_rotation_l/accel	/jointset/back/lumbar_extension/accel	/jointset/patellofemoral_l/patellar_flexion_l/accel	/jointset/knee_l/knee_flexion_l/accel	/jointset/knee_l/knee_adduction_l/accel	/jointset/knee_l/knee_rotation_l/accel	/jointset/ankle_l/ankle_angle_l/accel	/jointset/subtalar_l/subtalar_angle_l/accel	gamma_cid13_p0	gamma_cid13_p1	gamma_cid13_p2	gamma_cid13_p3	gamma_cid13_p4	gamma_cid13_p5	gamma_cid14_p0
0.5	-0.480957087138527	-0.1018578297787953	0.7672803463323249	1.267375118136053	-0.3093574818008059	-0.09003907022143923	-0.3287303895972319	0.5793745487426988	0.579374548742686	-0.1733568775530435	0.1744758756025548	-0.0520857662761696	-0.06517608791866596	-0.857033937171332	-0.345408830775535	-0.47139656338547	2.384233428358066	-0.06895266178472734	0.4973132369752329	-0.6230684278336922	1.477648978520564	1.477648978520418	-0.005589425124766375	0.0005159554601724487	0.008108726887989852	-0.08070063885060132	-0.2589754553392339	0.00783802093897909	-0.01915700663126429	-0.1832799256699265	0.1884758242962482	0.04512120659459459	0.2274996123233037	21.21498478816011	-25.7517734322643	6.491376602291036	-7.55960289234081	-608.8220655629158	-64.56511524005623	-34.12746017847815	0.5731928225390283	0.738363753788589	-0.2439177786048835	-1.542672826997277	0.4265180655039277	-0.2066182334984069	1.747231656270475	-0.9458334303723773	-0.9458334303723795	0.001523743972271074	-0.04016313604305065	0.1096119791505323	0.4362926615167907	3.17922872411819e-08	-7.353950142733176e-07	7.793703653495964e-08	-1.470109437095439e-07	-1.507916327165071e-07	1.126139096302942e-07	-1.090842118534449e-07
0.51	-0.4894969158398949	-0.1052745773562057	0.7625551798541166	1.29113622835514	-0.3100265072276989	-0.08507795203161468	-0.3348737354910832	0.594101866079696	0.5941018660796913	-0.1734137458333335	0.1744805111154706	-0.05199947894404935	-0.06596209954771876	-0.8508169557574079	-0.3379073277213674	-0.4735401826020446	2.3676735728258	-0.06485550894913736	0.4948436905037528	-0.6055309302942548	1.467617095081917	1.46761709508186	-0.005779550152990552	0.0004157844296225024	0.009136007997174178	-0.07650459895267619	-0.2677572156656894	0.008510709107479987	-0.01917905909317869	-0.1841386930024756	0.1900746870866063	0.04598706498429596	0.2341767825244754	21.47880283116794	-26.05351370157731	6.401848455680978	-7.791171832502632	-613.3328967621383	-64.3149204787684	-33.41739321651937	0.6631710991814803	0.761018159985407	-0.1851306673647748	-1.759907193243579	0.4009539578974418	-0.277246564956256	1.767481899175865	-1.061453274443324	-1.061453274430157	-0.02871251336532525	0.005682792499442718	0.09737662561504853	0.4109253092076345	2.745345751006349e-08	-6.951424951432477e-07	7.923059776096609e-08	-1.421256544064194e-07	-1.403479819161158e-07	1.200275052303676e-07	-1.063803201668603e-07
0.52	-0.4979711306674467	-0.1086153149873239	0.7578114678489065	1.314722286963524	-0.3106546331131735	-0.08014355404869936	-0.3408396117902602	0.608722947087535	0.6087229470875519	-0.1734724017413264	0.1744842702938973	-0.05190330071105655	-0.06670621764673682	-0.8439111624089902	-0.3302068415171007	-0.4751056687857728	2.349223106217435	-0.06077275350111112	0.4919691955929362	-0.5875745088989887	1.456401712689976	1.456401712690007	-0.005946950667035742	0.0003406885614883166	0.01008690705886388	-0.07232193284365936	-0.2765389759921464	0.009183397275985414	-0.01920111155503499	-0.1849974603350156	0.1916735498769752	0.04685292337400346	0.240853952725637	21.73336571969663	-26.35532287711301	6.314260854425844	-7.991211188357362	-617.9765407114473	-64.10638381119514	-32.68689821794759	0.7109552094377433	0.7781603838082527	-0.1282911720356733	-1.920795042217197	0.4236385879911906	-0.2876079213656757	1.831016427436191	-1.182533221031171	-1.182533221031215	0.006068646808057547	-0.03514810355993263	0.09433556965133418	0.4336179037350784	2.335041815570088e-08	-6.53341530524509e-07	8.011197792064398e-08	-1.366363104029304e-07	-1.297149382724513e-07	1.260062924976279e-07	-1.031516115622993e-07
0.53	-0.5063729764510455	-0.1118781433701223	0.7530549910130431	1.338114667094688	-0.3112419935688644	-0.07523981233738919	-0.346623923258276	0.6232260762339288	0.6232260762339257	-0.1735325235993888	0.1744873033937272	-0.05179798624759877	-0.06740856561858506	-0.8363494485299575	-0.3223335062412555	-0.4760922687592317	2.328953091330819	-0.05670559810130825	0.4887105426279588	-0.5692336524188514	1.444035940812278	1.44403594081229	-0.006069925957533908	0.0002728331893935195	0.01096297086251999	-0.06815368237567763	-0.2851393962580879	0.009708814242049189	-0.01925046356354226	-0.1858431122366035	0.1932895846136765	0.0475967697879633	0.247329404417068	21.99751693671703	-26.60982080906297	6.223699342601006	-8.175775381927275	-622.4928257659708	-63.82517899852098	-31.9389033233018	0.7950536511559989	0.7956926686277487	-0.06925479195945598	-2.125088472187742	0.3974039246685908	-0.3553931110829365	1.84374010115482	-1.291805246435314	-1.291805246438163	-0.02047575457694457	0.008367429952824124	0.08228934403079256	0.4076146353527033	1.951711454495508e-08	-6.105922167119316e-07	8.03930369211182e-08	-1.306951995843585e-07	-1.191771841384427e-07	1.305612991195984e-07	-9.945803420516921e-08
0.54	-0.5146959502610464	-0.1150614838863315	0.7482915661010536	1.361295350324926	-0.3117888524888178	-0.07037073698113314	-0.352223202192919	0.6375999064464822	0.6375999064464681	-0.1735936742378647	0.1744898522766383	-0.05168430163443096	-0.06806939388234888	-0.8281367676901237	-0.3143092681992749	-0.4764952840109512	2.306883726032039	-0.05267244635375334	0.4850359245822144	-0.5505680022246114	1.430541925922736	1.43054192592273	-0.006152706751958194	0.0002438451767809694	0.01176093699849695	-0.06401799122677512	-0.2937398165240258	0.01023423120811177	-0.01929981557197713	-0.1866887641381906	0.1949056193503828	0.04834061620192273	0.2538048561084989	22.25264183246524	-26.86461093959742	6.135323254712996	-8.333208049868594	-627.1412886066649	-63.58464718788099	-31.17637017770512	0.8411486015980045	0.808340937035177	-0.01157422768784716	-2.280665124650215	0.4168378575416138	-0.3708009375190672	1.895975170256722	-1.408181823399817	-1.408181823399738	0.01410754602283314	-0.02737463166352824	0.07871603611526658	0.427106039919193	1.59822419697002e-08	-5.667936654934048e-07	8.000991080928194e-08	-1.242542616512266e-07	-1.087448566959682e-07	1.335410590701843e-07	-9.525013397285633e-08
0.55	-0.5229336794738514	-0.1181639164278604	0.7435270190276558	1.384246619779445	-0.3122955360460251	-0.06554030781024299	-0.3576342939529421	0.6518332521084168	0.6518332521084023	-0.1736553958211636	0.1744921368254788	-0.05156302498331814	-0.06868901537124991	-0.819306445632914	-0.3061596833185905	-0.4763167382508176	2.283084799926085	-0.04867468037935948	0.4809859262245939	-0.5316127681117467	1.415946809651581	1.41594680965173	-0.006186948175084805	0.0002169889523378121	0.01248048351558771	-0.05991653157082465	-0.3021101014289825	0.01062547862767792	-0.019369237802064	-0.1875019456034564	0.1964919866640688	0.04895852234343604	0.2600369827178968	22.50569721844693	-27.06858474615727	6.043691079529592	-8.461696086811619	-631.6034104627967	-63.26517618528572	-30.40212755591901	0.9193602670814388	0.8208766331715588	0.04715722951369577	-2.472320678358265	0.3897585592283817	-0.4317947006276316	1.90093478210607	-1.512217459853241	-1.512217459830147	-0.01159448335972939	0.01019004871897965	0.06648700718835161	0.4002076564537753	9.844620625617131e-09	-5.187934001107935e-07	9.414580112373068e-08	-1.148653795094149e-07	-9.99473889809295e-08	1.373789557100588e-07	-9.238198361717714e-08
0.5600000000000001	-0.5310800282142214	-0.1211843312466655	0.7387671750621895	1.406951337107947	-0.3127625394251191	-0.0607523177060821	-0.3628547059217749	0.6659152384214608	0.6659152384214548	-0.1737173407180567	0.1744942590453899	-0.05143497025748965	-0.06926791391798728	-0.8098606732037396	-0.2979057236545032	-0.4755546624246279	2.257573300828515	-0.04473641073135724	0.4765481112372089	-0.5124320439866838	1.400270056145233	1.400270056145536	-0.006197369473382956	0.0002113793900414913	0.01311655193997287	-0.05587340279404066	-0.3104803863339408	0.01101672604723466	-0.01943866003206832	-0.1883151270687265	0.1980783539777553	0.0495764284849399	0.2662691093272931	22.74997062456	-27.27300796869458	5.954400115149555	-8.567560239392089	-636.1968493520048	-62.98488319836284	-29.61899488220814	0.9642386759910271	0.8292158937156043	0.1051317855233082	-2.623179722973644	0.4049385922633114	-0.4483642634719243	1.941073172696332	-1.6245092704385	-1.624509270438526	0.01887157098853605	-0.02312529923421512	0.06202041757393381	0.4154398640858669	5.83700758940332e-10	-4.657510777312811e-07	1.257045111497208e-07	-1.019389643171876e-07	-9.311175293881354e-08	1.422466163770795e-07	-9.112153311345832e-08
0.5700000000000001	-0.539128985227162	-0.1241217583192725	0.7340178543520386	1.429392647982944	-0.3131904221253622	-0.05601048332796302	-0.3678822660199046	0.6798351543416853	0.6798351543416871	-0.1737791845053427	0.1744962719857964	-0.05130094234945983	-0.06980663422554041	-0.7998345328585977	-0.2895684323029422	-0.4742126542739689	2.230418511529875	-0.04085085919962597	0.4717451256297461	-0.4930582528149818	1.383544228036852	1.383544228036973	-0.006155427671949746	0.0002027223635385277	0.01367794567256672	-0.05188067902895211	-0.3185515549892949	0.01126445971669877	-0.01953130766604252	-0.1891425744746506	0.1997136217435563	0.05005796054889745	0.2722115457066837	23.02005965941551	-27.42765858690062	5.862810593411997	-8.675412551157542	-640.5655839528547	-62.63128763469514	-28.82963208290706	1.036221754139839	0.83765561468817	0.163241280437928	-2.802193729063125	0.3788040486638536	-0.5074031302265551	1.9387905131221	-1.721936478792482	-1.721936478819838	-0.0008307939249805078	0.01192881670901899	0.05153658029204789	0.3897369377218963	-2.69280479759796e-08	-3.871875408516756e-07	2.431843306759148e-07	-6.860232041358216e-08	-9.806056111040197e-08	1.615244972693191e-07	-9.893137673700701e-08
0.58	-0.5470747968285765	-0.1269754785066018	0.7292848549135144	1.451554297925805	-0.31357976118728	-0.05131890629008337	-0.3727154365215736	0.6935827486012771	0.693582748601282	-0.1738401461303461	0.1744985313001454	-0.05116163295825898	-0.07030571763444239	-0.7892315908988904	-0.2811643465989606	-0.472290408099223	2.201641114401075	-0.03702768306646263	0.4664966431885603	-0.4735541246946728	1.365805724018289	1.365805724018227	-0.006020937016339819	0.0002606541797304397	0.0141728485727582	-0.04794602306379941	-0.3266227236446403	0.01151219338617276	-0.01962395530006262	-0.1899700218805559	0.2013488895093669	0.0505394926128681	0.2781539820860761	23.28160241716311	-27.58298543875928	5.773810421530597	-8.765933370960425	-645.0652106778647	-62.31689889289677	-28.03666129691905	1.079598998904208	0.8425747641996125	0.2211793903406434	-2.947701289005487	0.3924635125497475	-0.5374636302165022	1.967140562417714	-1.827044452475176	-1.827044452475153	0.03738134182390498	-0.009807530695304888	0.04872225109326315	0.4038263040986761	-7.820831802767997e-08	-2.753870734603236e-07	4.725614090860891e-07	-8.684913537020785e-09	-1.183565524440233e-07	1.995691765944008e-07	-1.185536964332756e-07
